<svg xmlns="http://www.w3.org/2000/svg" viewBox="0 0 1920 1080" role="img" aria-label="MELU 品牌識別圖示">
  <rect width="1920" height="1080" fill="#0b1712"/>
  <!-- 訊號符號（置中偏上） -->
  <g transform="translate(800,238) scale(5)">
    <line x1="32" y1="34" x2="32" y2="18" stroke="#22352a" stroke-width="4" stroke-linecap="round"/>
    <circle cx="32" cy="14" r="11" fill="none" stroke="#7fe0b0" stroke-width="1.6" opacity="0.4"/>
    <circle cx="32" cy="14" r="6" fill="#7fe0b0"/>
    <rect x="18" y="34" width="28" height="18" rx="8" fill="#22352a"/>
    <rect x="24" y="39" width="5" height="8" rx="2.5" fill="#e9edc9"/>
    <rect x="35" y="39" width="5" height="8" rx="2.5" fill="#e9edc9"/>
  </g>
  <!-- MELU 像素字樣 -->
    <rect x="687" y="648" width="26" height="26" fill="#f2f3ea"/>
    <rect x="791" y="648" width="26" height="26" fill="#f2f3ea"/>
    <rect x="687" y="674" width="26" height="26" fill="#f2f3ea"/>
    <rect x="713" y="674" width="26" height="26" fill="#f2f3ea"/>
    <rect x="765" y="674" width="26" height="26" fill="#f2f3ea"/>
    <rect x="791" y="674" width="26" height="26" fill="#f2f3ea"/>
    <rect x="687" y="700" width="26" height="26" fill="#f2f3ea"/>
    <rect x="739" y="700" width="26" height="26" fill="#f2f3ea"/>
    <rect x="791" y="700" width="26" height="26" fill="#f2f3ea"/>
    <rect x="687" y="726" width="26" height="26" fill="#f2f3ea"/>
    <rect x="791" y="726" width="26" height="26" fill="#f2f3ea"/>
    <rect x="687" y="752" width="26" height="26" fill="#f2f3ea"/>
    <rect x="791" y="752" width="26" height="26" fill="#f2f3ea"/>
    <rect x="843" y="648" width="26" height="26" fill="#f2f3ea"/>
    <rect x="869" y="648" width="26" height="26" fill="#f2f3ea"/>
    <rect x="895" y="648" width="26" height="26" fill="#f2f3ea"/>
    <rect x="921" y="648" width="26" height="26" fill="#f2f3ea"/>
    <rect x="843" y="674" width="26" height="26" fill="#f2f3ea"/>
    <rect x="843" y="700" width="26" height="26" fill="#f2f3ea"/>
    <rect x="869" y="700" width="26" height="26" fill="#f2f3ea"/>
    <rect x="895" y="700" width="26" height="26" fill="#f2f3ea"/>
    <rect x="843" y="726" width="26" height="26" fill="#f2f3ea"/>
    <rect x="843" y="752" width="26" height="26" fill="#f2f3ea"/>
    <rect x="869" y="752" width="26" height="26" fill="#f2f3ea"/>
    <rect x="895" y="752" width="26" height="26" fill="#f2f3ea"/>
    <rect x="921" y="752" width="26" height="26" fill="#f2f3ea"/>
    <rect x="973" y="648" width="26" height="26" fill="#f2f3ea"/>
    <rect x="973" y="674" width="26" height="26" fill="#f2f3ea"/>
    <rect x="973" y="700" width="26" height="26" fill="#f2f3ea"/>
    <rect x="973" y="726" width="26" height="26" fill="#f2f3ea"/>
    <rect x="973" y="752" width="26" height="26" fill="#f2f3ea"/>
    <rect x="999" y="752" width="26" height="26" fill="#f2f3ea"/>
    <rect x="1025" y="752" width="26" height="26" fill="#f2f3ea"/>
    <rect x="1051" y="752" width="26" height="26" fill="#f2f3ea"/>
    <rect x="1103" y="648" width="26" height="26" fill="#f2f3ea"/>
    <rect x="1207" y="648" width="26" height="26" fill="#f2f3ea"/>
    <rect x="1103" y="674" width="26" height="26" fill="#f2f3ea"/>
    <rect x="1207" y="674" width="26" height="26" fill="#f2f3ea"/>
    <rect x="1103" y="700" width="26" height="26" fill="#f2f3ea"/>
    <rect x="1207" y="700" width="26" height="26" fill="#f2f3ea"/>
    <rect x="1103" y="726" width="26" height="26" fill="#f2f3ea"/>
    <rect x="1207" y="726" width="26" height="26" fill="#f2f3ea"/>
    <rect x="1103" y="752" width="26" height="26" fill="#f2f3ea"/>
    <rect x="1129" y="752" width="26" height="26" fill="#f2f3ea"/>
    <rect x="1155" y="752" width="26" height="26" fill="#f2f3ea"/>
    <rect x="1181" y="752" width="26" height="26" fill="#f2f3ea"/>
    <rect x="1207" y="752" width="26" height="26" fill="#f2f3ea"/>
</svg>